<svg width="411" height="731" viewBox="0 0 411 731" fill="none" xmlns="http://www.w3.org/2000/svg">
<rect width="411" height="731" fill="#1F1F1F"/>
<g filter="url(#filter0_d)">
<ellipse cx="205" cy="204" rx="138" ry="135" fill="#CBB544"/>
</g>
<path d="M161.476 262V235H94.5158V221.32L158.956 136H182.716V215.2H198.556V235H182.716V262H161.476ZM161.476 215.2V163.36L122.776 215.2H161.476ZM237.544 264.16V243.1C261.544 241.9 276.064 229.9 281.104 207.1C275.704 212.5 267.964 215.2 257.884 215.2C245.644 215.2 235.624 211.54 227.824 204.22C220.144 196.78 216.304 186.82 216.304 174.34C216.304 162.22 220.444 152.44 228.724 145C237.004 137.56 247.744 133.84 260.944 133.84C275.824 133.84 286.924 138.28 294.244 147.16C301.684 156.04 305.404 167.86 305.404 182.62C305.404 207.34 299.704 226.9 288.304 241.3C277.024 255.7 260.104 263.32 237.544 264.16ZM244.384 188.92C248.344 192.4 253.804 194.14 260.764 194.14C267.724 194.14 273.244 192.4 277.324 188.92C281.404 185.32 283.444 180.4 283.444 174.16C283.444 168.28 281.344 163.6 277.144 160.12C273.064 156.52 267.664 154.72 260.944 154.72C254.224 154.72 248.764 156.52 244.564 160.12C240.484 163.6 238.444 168.28 238.444 174.16C238.444 180.52 240.424 185.44 244.384 188.92Z" fill="white"/>
<path d="M194.027 312V300.84C194.027 297.648 192.791 296.052 190.319 296.052C189.143 296.052 188.183 296.508 187.439 297.42C186.719 298.308 186.359 299.484 186.359 300.948V312H183.227V300.84C183.227 297.648 182.003 296.052 179.555 296.052C178.331 296.052 177.359 296.484 176.639 297.348C175.943 298.188 175.595 299.34 175.595 300.804V312H172.463V293.604H175.595V295.332C176.675 293.892 178.283 293.172 180.419 293.172C181.451 293.172 182.399 293.412 183.263 293.892C184.151 294.348 184.847 295.008 185.351 295.872C186.527 294.072 188.303 293.172 190.679 293.172C192.599 293.172 194.159 293.76 195.359 294.936C196.559 296.112 197.159 297.78 197.159 299.94V312H194.027ZM210.756 312.432C208.836 312.432 207.264 311.712 206.04 310.272V317.796L202.908 319.272V293.604H206.04V295.152C207.36 293.832 208.932 293.172 210.756 293.172C213.084 293.172 214.932 294.036 216.3 295.764C217.668 297.492 218.352 299.832 218.352 302.784C218.352 305.784 217.656 308.148 216.264 309.876C214.872 311.58 213.036 312.432 210.756 312.432ZM210.36 309.516C211.896 309.516 213.072 308.94 213.888 307.788C214.728 306.612 215.148 304.944 215.148 302.784C215.148 300.744 214.716 299.112 213.852 297.888C213.012 296.664 211.848 296.052 210.36 296.052C208.416 296.052 206.976 296.88 206.04 298.536V307.032C207.312 308.688 208.752 309.516 210.36 309.516ZM223.228 312V287.448L226.36 286.008V295.512C227.488 293.952 229.072 293.172 231.112 293.172C233.272 293.172 234.904 293.832 236.008 295.152C237.136 296.448 237.7 298.536 237.7 301.416V312H234.568V300.876C234.568 299.22 234.208 298.008 233.488 297.24C232.792 296.448 231.832 296.052 230.608 296.052C227.776 296.052 226.36 297.636 226.36 300.804V312H223.228Z" fill="white"/>
<path d="M148.381 434.288C146.957 434.288 145.717 433.944 144.661 433.256C143.621 432.552 142.909 431.648 142.525 430.544L144.493 429.824C144.845 430.592 145.365 431.2 146.053 431.648C146.741 432.096 147.533 432.32 148.429 432.32C149.453 432.32 150.261 432.08 150.853 431.6C151.445 431.104 151.741 430.4 151.741 429.488C151.741 428.608 151.405 427.904 150.733 427.376C150.077 426.848 149.149 426.368 147.949 425.936C147.373 425.728 146.893 425.544 146.509 425.384C146.141 425.224 145.709 425 145.213 424.712C144.733 424.408 144.349 424.104 144.061 423.8C143.773 423.48 143.525 423.088 143.317 422.624C143.125 422.144 143.029 421.624 143.029 421.064C143.029 419.896 143.493 418.912 144.421 418.112C145.349 417.312 146.605 416.912 148.189 416.912C149.485 416.912 150.565 417.192 151.429 417.752C152.293 418.296 152.853 419.016 153.109 419.912L151.189 420.56C150.965 420.064 150.581 419.656 150.037 419.336C149.493 419.016 148.829 418.856 148.045 418.856C147.165 418.856 146.469 419.056 145.957 419.456C145.445 419.84 145.189 420.376 145.189 421.064C145.189 421.432 145.277 421.768 145.453 422.072C145.645 422.376 145.933 422.648 146.317 422.888C146.717 423.128 147.085 423.32 147.421 423.464C147.757 423.608 148.221 423.792 148.813 424.016C149.549 424.288 150.157 424.552 150.637 424.808C151.117 425.048 151.637 425.376 152.197 425.792C152.757 426.208 153.181 426.728 153.469 427.352C153.757 427.96 153.901 428.656 153.901 429.44C153.901 430.944 153.389 432.128 152.365 432.992C151.341 433.856 150.013 434.288 148.381 434.288ZM162.724 434.288C161.444 434.288 160.396 433.808 159.58 432.848V437.864L157.492 438.848V421.736H159.58V422.768C160.46 421.888 161.508 421.448 162.724 421.448C164.276 421.448 165.508 422.024 166.42 423.176C167.332 424.328 167.788 425.888 167.788 427.856C167.788 429.856 167.324 431.432 166.396 432.584C165.468 433.72 164.244 434.288 162.724 434.288ZM162.46 432.344C163.484 432.344 164.268 431.96 164.812 431.192C165.372 430.408 165.652 429.296 165.652 427.856C165.652 426.496 165.364 425.408 164.788 424.592C164.228 423.776 163.452 423.368 162.46 423.368C161.164 423.368 160.204 423.92 159.58 425.024V430.688C160.428 431.792 161.388 432.344 162.46 432.344ZM175.767 434.288C174.103 434.288 172.775 433.696 171.783 432.512C170.807 431.312 170.319 429.76 170.319 427.856C170.319 425.856 170.815 424.288 171.807 423.152C172.799 422.016 174.119 421.448 175.767 421.448C177.239 421.448 178.447 421.944 179.391 422.936C180.351 423.912 180.831 425.36 180.831 427.28C180.831 427.728 180.807 428.192 180.759 428.672H172.455C172.535 429.792 172.879 430.696 173.487 431.384C174.111 432.056 174.887 432.392 175.815 432.392C176.839 432.392 177.719 432.024 178.455 431.288L179.727 432.704C178.671 433.76 177.351 434.288 175.767 434.288ZM172.431 426.896H178.719C178.703 425.632 178.399 424.72 177.807 424.16C177.231 423.584 176.551 423.296 175.767 423.296C174.823 423.296 174.047 423.6 173.439 424.208C172.831 424.8 172.495 425.696 172.431 426.896ZM188.681 434.288C187.017 434.288 185.689 433.696 184.697 432.512C183.721 431.312 183.233 429.76 183.233 427.856C183.233 425.856 183.729 424.288 184.721 423.152C185.713 422.016 187.033 421.448 188.681 421.448C190.153 421.448 191.361 421.944 192.305 422.936C193.265 423.912 193.745 425.36 193.745 427.28C193.745 427.728 193.721 428.192 193.673 428.672H185.369C185.449 429.792 185.793 430.696 186.401 431.384C187.025 432.056 187.801 432.392 188.729 432.392C189.753 432.392 190.633 432.024 191.369 431.288L192.641 432.704C191.585 433.76 190.265 434.288 188.681 434.288ZM185.345 426.896H191.633C191.617 425.632 191.313 424.72 190.721 424.16C190.145 423.584 189.465 423.296 188.681 423.296C187.737 423.296 186.961 423.6 186.353 424.208C185.745 424.8 185.409 425.696 185.345 426.896ZM201.211 434.288C199.659 434.288 198.427 433.712 197.515 432.56C196.603 431.408 196.147 429.84 196.147 427.856C196.147 425.856 196.603 424.288 197.515 423.152C198.443 422.016 199.675 421.448 201.211 421.448C202.411 421.448 203.443 421.832 204.307 422.6V417.656L206.395 416.672V434H204.307V433.04C203.507 433.872 202.475 434.288 201.211 434.288ZM201.499 432.344C202.715 432.344 203.651 431.792 204.307 430.688V424.928C203.651 423.888 202.715 423.368 201.499 423.368C200.459 423.368 199.659 423.76 199.099 424.544C198.539 425.312 198.259 426.416 198.259 427.856C198.259 429.152 198.547 430.224 199.123 431.072C199.715 431.92 200.507 432.344 201.499 432.344ZM216.352 434V417.2H218.44V431.984H226.696V434H216.352ZM231.39 419.144C231.134 419.384 230.822 419.504 230.454 419.504C230.086 419.504 229.774 419.376 229.518 419.12C229.278 418.864 229.158 418.56 229.158 418.208C229.158 417.84 229.286 417.528 229.542 417.272C229.798 417 230.102 416.864 230.454 416.864C230.822 416.864 231.134 417 231.39 417.272C231.646 417.528 231.774 417.84 231.774 418.208C231.774 418.576 231.646 418.888 231.39 419.144ZM229.422 434V421.736H231.51V434H229.422ZM249.868 434V426.56C249.868 424.432 249.044 423.368 247.396 423.368C246.612 423.368 245.972 423.672 245.476 424.28C244.996 424.872 244.756 425.656 244.756 426.632V434H242.668V426.56C242.668 424.432 241.852 423.368 240.22 423.368C239.404 423.368 238.756 423.656 238.276 424.232C237.812 424.792 237.58 425.56 237.58 426.536V434H235.492V421.736H237.58V422.888C238.3 421.928 239.372 421.448 240.796 421.448C241.484 421.448 242.116 421.608 242.692 421.928C243.284 422.232 243.748 422.672 244.084 423.248C244.868 422.048 246.052 421.448 247.636 421.448C248.916 421.448 249.956 421.84 250.756 422.624C251.556 423.408 251.956 424.52 251.956 425.96V434H249.868ZM257.781 419.144C257.525 419.384 257.213 419.504 256.845 419.504C256.477 419.504 256.165 419.376 255.909 419.12C255.669 418.864 255.549 418.56 255.549 418.208C255.549 417.84 255.677 417.528 255.933 417.272C256.189 417 256.493 416.864 256.845 416.864C257.213 416.864 257.525 417 257.781 417.272C258.037 417.528 258.165 417.84 258.165 418.208C258.165 418.576 258.037 418.888 257.781 419.144ZM255.813 434V421.736H257.901V434H255.813ZM265.195 434.288C263.467 434.288 262.603 433.312 262.603 431.36V423.56H260.611V421.736H262.603V417.68L264.691 416.672V421.736H267.715V423.56H264.691V430.664C264.691 431.208 264.779 431.624 264.955 431.912C265.131 432.2 265.467 432.344 265.963 432.344C266.507 432.344 267.115 432.128 267.787 431.696L267.547 433.736C266.843 434.104 266.059 434.288 265.195 434.288Z" fill="white"/>
<path d="M139.793 488V480.8H121.937V477.152L139.121 454.4H145.457V475.52H149.681V480.8H145.457V488H139.793ZM139.793 475.52V461.696L129.473 475.52H139.793ZM165.636 488.576C161.252 488.576 157.796 487.52 155.268 485.408L158.532 480.896C160.74 482.368 163.108 483.104 165.636 483.104C167.748 483.104 169.444 482.528 170.724 481.376C172.036 480.224 172.692 478.688 172.692 476.768C172.692 475.008 172.196 473.648 171.204 472.688C170.244 471.728 168.916 471.248 167.22 471.248C165.14 471.248 163.38 472.016 161.94 473.552L156.228 471.152L157.236 454.4H176.388V459.92H162.564L162.036 467.216C163.668 466.256 165.556 465.776 167.7 465.776C171.156 465.776 173.812 466.832 175.668 468.944C177.556 471.056 178.5 473.648 178.5 476.72C178.5 480.304 177.3 483.184 174.9 485.36C172.5 487.504 169.412 488.576 165.636 488.576ZM225.619 488V473.936C225.619 470.128 224.227 468.224 221.443 468.224C220.003 468.224 218.867 468.72 218.035 469.712C217.235 470.672 216.835 472.112 216.835 474.032V488H211.219V473.936C211.219 470.128 209.827 468.224 207.043 468.224C205.603 468.224 204.467 468.72 203.635 469.712C202.835 470.672 202.435 472.112 202.435 474.032V488H196.819V463.472H202.435V465.728C203.843 463.84 205.843 462.896 208.435 462.896C211.443 462.896 213.587 464.048 214.867 466.352C216.435 464.048 218.899 462.896 222.259 462.896C225.011 462.896 227.187 463.664 228.787 465.2C230.419 466.704 231.235 469.088 231.235 472.352V488H225.619ZM249.393 488.576C247.025 488.576 245.169 487.728 243.825 486.032V495.056L238.209 497.648V463.472H243.825V465.344C245.169 463.712 247.041 462.896 249.441 462.896C252.545 462.896 254.993 464.032 256.785 466.304C258.609 468.544 259.521 471.696 259.521 475.76C259.521 479.728 258.593 482.864 256.737 485.168C254.881 487.44 252.433 488.576 249.393 488.576ZM248.577 483.2C250.273 483.2 251.585 482.56 252.513 481.28C253.441 480 253.905 478.16 253.905 475.76C253.905 473.488 253.441 471.664 252.513 470.288C251.585 468.912 250.273 468.224 248.577 468.224C246.497 468.224 244.913 469.024 243.825 470.624V480.8C244.945 482.4 246.529 483.2 248.577 483.2ZM265.538 488V455.936L271.154 453.344V465.776C272.754 463.856 274.914 462.896 277.634 462.896C280.194 462.896 282.274 463.696 283.874 465.296C285.506 466.896 286.322 469.44 286.322 472.928V488H280.706V473.84C280.706 470.096 279.186 468.224 276.146 468.224C272.818 468.224 271.154 470.064 271.154 473.744V488H265.538Z" fill="#CBB544"/>
<g filter="url(#filter1_d)">
<circle cx="88.5" cy="583.5" r="33.5" fill="#CBB544"/>
</g>
<g filter="url(#filter2_d)">
<circle cx="204.5" cy="583.5" r="33.5" fill="#44CB61"/>
</g>
<g filter="url(#filter3_d)">
<circle cx="321.5" cy="583.5" r="33.5" fill="#44CB61"/>
</g>
<defs>
<filter id="filter0_d" x="17" y="19" width="376" height="370" filterUnits="userSpaceOnUse" color-interpolation-filters="sRGB">
<feFlood flood-opacity="0" result="BackgroundImageFix"/>
<feColorMatrix in="SourceAlpha" type="matrix" values="0 0 0 0 0 0 0 0 0 0 0 0 0 0 0 0 0 0 127 0"/>
<feOffset/>
<feGaussianBlur stdDeviation="25"/>
<feColorMatrix type="matrix" values="0 0 0 0 0.796078 0 0 0 0 0.711373 0 0 0 0 0.266667 0 0 0 0.5 0"/>
<feBlend mode="normal" in2="BackgroundImageFix" result="effect1_dropShadow"/>
<feBlend mode="normal" in="SourceGraphic" in2="effect1_dropShadow" result="shape"/>
</filter>
<filter id="filter1_d" x="30" y="525" width="117" height="117" filterUnits="userSpaceOnUse" color-interpolation-filters="sRGB">
<feFlood flood-opacity="0" result="BackgroundImageFix"/>
<feColorMatrix in="SourceAlpha" type="matrix" values="0 0 0 0 0 0 0 0 0 0 0 0 0 0 0 0 0 0 127 0"/>
<feOffset/>
<feGaussianBlur stdDeviation="12.5"/>
<feColorMatrix type="matrix" values="0 0 0 0 0.796078 0 0 0 0 0.711373 0 0 0 0 0.266667 0 0 0 0.5 0"/>
<feBlend mode="normal" in2="BackgroundImageFix" result="effect1_dropShadow"/>
<feBlend mode="normal" in="SourceGraphic" in2="effect1_dropShadow" result="shape"/>
</filter>
<filter id="filter2_d" x="146" y="525" width="117" height="117" filterUnits="userSpaceOnUse" color-interpolation-filters="sRGB">
<feFlood flood-opacity="0" result="BackgroundImageFix"/>
<feColorMatrix in="SourceAlpha" type="matrix" values="0 0 0 0 0 0 0 0 0 0 0 0 0 0 0 0 0 0 127 0"/>
<feOffset/>
<feGaussianBlur stdDeviation="12.5"/>
<feColorMatrix type="matrix" values="0 0 0 0 0.266667 0 0 0 0 0.796078 0 0 0 0 0.380392 0 0 0 0.25 0"/>
<feBlend mode="normal" in2="BackgroundImageFix" result="effect1_dropShadow"/>
<feBlend mode="normal" in="SourceGraphic" in2="effect1_dropShadow" result="shape"/>
</filter>
<filter id="filter3_d" x="263" y="525" width="117" height="117" filterUnits="userSpaceOnUse" color-interpolation-filters="sRGB">
<feFlood flood-opacity="0" result="BackgroundImageFix"/>
<feColorMatrix in="SourceAlpha" type="matrix" values="0 0 0 0 0 0 0 0 0 0 0 0 0 0 0 0 0 0 127 0"/>
<feOffset/>
<feGaussianBlur stdDeviation="12.5"/>
<feColorMatrix type="matrix" values="0 0 0 0 0.266667 0 0 0 0 0.796078 0 0 0 0 0.380392 0 0 0 0.25 0"/>
<feBlend mode="normal" in2="BackgroundImageFix" result="effect1_dropShadow"/>
<feBlend mode="normal" in="SourceGraphic" in2="effect1_dropShadow" result="shape"/>
</filter>
</defs>
</svg>
