<svg width="411" height="731" viewBox="0 0 411 731" fill="none" xmlns="http://www.w3.org/2000/svg">
<rect width="411" height="731" fill="#1F1F1F"/>
<g filter="url(#filter0_d)">
<ellipse cx="206" cy="204" rx="138" ry="135" fill="#CB4444"/>
</g>
<path d="M132.494 262C132.614 241.24 135.434 222.64 140.954 206.2C146.594 189.64 155.234 173.2 166.874 156.88H105.314V136H191.174V156.88C178.694 171.16 169.454 188.2 163.454 208C157.454 227.68 154.394 245.68 154.274 262H132.494ZM286.229 253.18C278.069 260.5 267.269 264.16 253.829 264.16C240.389 264.16 229.589 260.5 221.429 253.18C213.389 245.86 209.369 236.32 209.369 224.56C209.369 210.16 216.389 199.66 230.429 193.06C219.869 187.18 214.589 178.48 214.589 166.96C214.589 157.24 218.129 149.32 225.209 143.2C232.409 136.96 241.949 133.84 253.829 133.84C265.709 133.84 275.249 136.96 282.449 143.2C289.649 149.32 293.249 157.24 293.249 166.96C293.249 178.36 287.969 187 277.409 192.88C283.889 196 288.989 200.26 292.709 205.66C296.549 211.06 298.469 217.36 298.469 224.56C298.469 236.32 294.389 245.86 286.229 253.18ZM241.049 179.02C244.289 181.9 248.549 183.34 253.829 183.34C259.109 183.34 263.369 181.9 266.609 179.02C269.969 176.14 271.649 172.54 271.649 168.22C271.649 163.9 269.969 160.42 266.609 157.78C263.369 155.02 259.109 153.64 253.829 153.64C248.549 153.64 244.289 155.02 241.049 157.78C237.809 160.42 236.189 163.9 236.189 168.22C236.189 172.54 237.809 176.14 241.049 179.02ZM237.629 238.6C241.829 242.32 247.229 244.18 253.829 244.18C260.429 244.18 265.889 242.32 270.209 238.6C274.529 234.76 276.689 229.9 276.689 224.02C276.689 218.26 274.469 213.4 270.029 209.44C265.709 205.48 260.309 203.5 253.829 203.5C247.229 203.5 241.829 205.48 237.629 209.44C233.429 213.28 231.329 218.14 231.329 224.02C231.329 230.02 233.429 234.88 237.629 238.6Z" fill="white"/>
<path d="M194.027 312V300.84C194.027 297.648 192.791 296.052 190.319 296.052C189.143 296.052 188.183 296.508 187.439 297.42C186.719 298.308 186.359 299.484 186.359 300.948V312H183.227V300.84C183.227 297.648 182.003 296.052 179.555 296.052C178.331 296.052 177.359 296.484 176.639 297.348C175.943 298.188 175.595 299.34 175.595 300.804V312H172.463V293.604H175.595V295.332C176.675 293.892 178.283 293.172 180.419 293.172C181.451 293.172 182.399 293.412 183.263 293.892C184.151 294.348 184.847 295.008 185.351 295.872C186.527 294.072 188.303 293.172 190.679 293.172C192.599 293.172 194.159 293.76 195.359 294.936C196.559 296.112 197.159 297.78 197.159 299.94V312H194.027ZM210.756 312.432C208.836 312.432 207.264 311.712 206.04 310.272V317.796L202.908 319.272V293.604H206.04V295.152C207.36 293.832 208.932 293.172 210.756 293.172C213.084 293.172 214.932 294.036 216.3 295.764C217.668 297.492 218.352 299.832 218.352 302.784C218.352 305.784 217.656 308.148 216.264 309.876C214.872 311.58 213.036 312.432 210.756 312.432ZM210.36 309.516C211.896 309.516 213.072 308.94 213.888 307.788C214.728 306.612 215.148 304.944 215.148 302.784C215.148 300.744 214.716 299.112 213.852 297.888C213.012 296.664 211.848 296.052 210.36 296.052C208.416 296.052 206.976 296.88 206.04 298.536V307.032C207.312 308.688 208.752 309.516 210.36 309.516ZM223.228 312V287.448L226.36 286.008V295.512C227.488 293.952 229.072 293.172 231.112 293.172C233.272 293.172 234.904 293.832 236.008 295.152C237.136 296.448 237.7 298.536 237.7 301.416V312H234.568V300.876C234.568 299.22 234.208 298.008 233.488 297.24C232.792 296.448 231.832 296.052 230.608 296.052C227.776 296.052 226.36 297.636 226.36 300.804V312H223.228Z" fill="white"/>
<path d="M148.381 434.288C146.957 434.288 145.717 433.944 144.661 433.256C143.621 432.552 142.909 431.648 142.525 430.544L144.493 429.824C144.845 430.592 145.365 431.2 146.053 431.648C146.741 432.096 147.533 432.32 148.429 432.32C149.453 432.32 150.261 432.08 150.853 431.6C151.445 431.104 151.741 430.4 151.741 429.488C151.741 428.608 151.405 427.904 150.733 427.376C150.077 426.848 149.149 426.368 147.949 425.936C147.373 425.728 146.893 425.544 146.509 425.384C146.141 425.224 145.709 425 145.213 424.712C144.733 424.408 144.349 424.104 144.061 423.8C143.773 423.48 143.525 423.088 143.317 422.624C143.125 422.144 143.029 421.624 143.029 421.064C143.029 419.896 143.493 418.912 144.421 418.112C145.349 417.312 146.605 416.912 148.189 416.912C149.485 416.912 150.565 417.192 151.429 417.752C152.293 418.296 152.853 419.016 153.109 419.912L151.189 420.56C150.965 420.064 150.581 419.656 150.037 419.336C149.493 419.016 148.829 418.856 148.045 418.856C147.165 418.856 146.469 419.056 145.957 419.456C145.445 419.84 145.189 420.376 145.189 421.064C145.189 421.432 145.277 421.768 145.453 422.072C145.645 422.376 145.933 422.648 146.317 422.888C146.717 423.128 147.085 423.32 147.421 423.464C147.757 423.608 148.221 423.792 148.813 424.016C149.549 424.288 150.157 424.552 150.637 424.808C151.117 425.048 151.637 425.376 152.197 425.792C152.757 426.208 153.181 426.728 153.469 427.352C153.757 427.96 153.901 428.656 153.901 429.44C153.901 430.944 153.389 432.128 152.365 432.992C151.341 433.856 150.013 434.288 148.381 434.288ZM162.724 434.288C161.444 434.288 160.396 433.808 159.58 432.848V437.864L157.492 438.848V421.736H159.58V422.768C160.46 421.888 161.508 421.448 162.724 421.448C164.276 421.448 165.508 422.024 166.42 423.176C167.332 424.328 167.788 425.888 167.788 427.856C167.788 429.856 167.324 431.432 166.396 432.584C165.468 433.72 164.244 434.288 162.724 434.288ZM162.46 432.344C163.484 432.344 164.268 431.96 164.812 431.192C165.372 430.408 165.652 429.296 165.652 427.856C165.652 426.496 165.364 425.408 164.788 424.592C164.228 423.776 163.452 423.368 162.46 423.368C161.164 423.368 160.204 423.92 159.58 425.024V430.688C160.428 431.792 161.388 432.344 162.46 432.344ZM175.767 434.288C174.103 434.288 172.775 433.696 171.783 432.512C170.807 431.312 170.319 429.76 170.319 427.856C170.319 425.856 170.815 424.288 171.807 423.152C172.799 422.016 174.119 421.448 175.767 421.448C177.239 421.448 178.447 421.944 179.391 422.936C180.351 423.912 180.831 425.36 180.831 427.28C180.831 427.728 180.807 428.192 180.759 428.672H172.455C172.535 429.792 172.879 430.696 173.487 431.384C174.111 432.056 174.887 432.392 175.815 432.392C176.839 432.392 177.719 432.024 178.455 431.288L179.727 432.704C178.671 433.76 177.351 434.288 175.767 434.288ZM172.431 426.896H178.719C178.703 425.632 178.399 424.72 177.807 424.16C177.231 423.584 176.551 423.296 175.767 423.296C174.823 423.296 174.047 423.6 173.439 424.208C172.831 424.8 172.495 425.696 172.431 426.896ZM188.681 434.288C187.017 434.288 185.689 433.696 184.697 432.512C183.721 431.312 183.233 429.76 183.233 427.856C183.233 425.856 183.729 424.288 184.721 423.152C185.713 422.016 187.033 421.448 188.681 421.448C190.153 421.448 191.361 421.944 192.305 422.936C193.265 423.912 193.745 425.36 193.745 427.28C193.745 427.728 193.721 428.192 193.673 428.672H185.369C185.449 429.792 185.793 430.696 186.401 431.384C187.025 432.056 187.801 432.392 188.729 432.392C189.753 432.392 190.633 432.024 191.369 431.288L192.641 432.704C191.585 433.76 190.265 434.288 188.681 434.288ZM185.345 426.896H191.633C191.617 425.632 191.313 424.72 190.721 424.16C190.145 423.584 189.465 423.296 188.681 423.296C187.737 423.296 186.961 423.6 186.353 424.208C185.745 424.8 185.409 425.696 185.345 426.896ZM201.211 434.288C199.659 434.288 198.427 433.712 197.515 432.56C196.603 431.408 196.147 429.84 196.147 427.856C196.147 425.856 196.603 424.288 197.515 423.152C198.443 422.016 199.675 421.448 201.211 421.448C202.411 421.448 203.443 421.832 204.307 422.6V417.656L206.395 416.672V434H204.307V433.04C203.507 433.872 202.475 434.288 201.211 434.288ZM201.499 432.344C202.715 432.344 203.651 431.792 204.307 430.688V424.928C203.651 423.888 202.715 423.368 201.499 423.368C200.459 423.368 199.659 423.76 199.099 424.544C198.539 425.312 198.259 426.416 198.259 427.856C198.259 429.152 198.547 430.224 199.123 431.072C199.715 431.92 200.507 432.344 201.499 432.344ZM216.352 434V417.2H218.44V431.984H226.696V434H216.352ZM231.39 419.144C231.134 419.384 230.822 419.504 230.454 419.504C230.086 419.504 229.774 419.376 229.518 419.12C229.278 418.864 229.158 418.56 229.158 418.208C229.158 417.84 229.286 417.528 229.542 417.272C229.798 417 230.102 416.864 230.454 416.864C230.822 416.864 231.134 417 231.39 417.272C231.646 417.528 231.774 417.84 231.774 418.208C231.774 418.576 231.646 418.888 231.39 419.144ZM229.422 434V421.736H231.51V434H229.422ZM249.868 434V426.56C249.868 424.432 249.044 423.368 247.396 423.368C246.612 423.368 245.972 423.672 245.476 424.28C244.996 424.872 244.756 425.656 244.756 426.632V434H242.668V426.56C242.668 424.432 241.852 423.368 240.22 423.368C239.404 423.368 238.756 423.656 238.276 424.232C237.812 424.792 237.58 425.56 237.58 426.536V434H235.492V421.736H237.58V422.888C238.3 421.928 239.372 421.448 240.796 421.448C241.484 421.448 242.116 421.608 242.692 421.928C243.284 422.232 243.748 422.672 244.084 423.248C244.868 422.048 246.052 421.448 247.636 421.448C248.916 421.448 249.956 421.84 250.756 422.624C251.556 423.408 251.956 424.52 251.956 425.96V434H249.868ZM257.781 419.144C257.525 419.384 257.213 419.504 256.845 419.504C256.477 419.504 256.165 419.376 255.909 419.12C255.669 418.864 255.549 418.56 255.549 418.208C255.549 417.84 255.677 417.528 255.933 417.272C256.189 417 256.493 416.864 256.845 416.864C257.213 416.864 257.525 417 257.781 417.272C258.037 417.528 258.165 417.84 258.165 418.208C258.165 418.576 258.037 418.888 257.781 419.144ZM255.813 434V421.736H257.901V434H255.813ZM265.195 434.288C263.467 434.288 262.603 433.312 262.603 431.36V423.56H260.611V421.736H262.603V417.68L264.691 416.672V421.736H267.715V423.56H264.691V430.664C264.691 431.208 264.779 431.624 264.955 431.912C265.131 432.2 265.467 432.344 265.963 432.344C266.507 432.344 267.115 432.128 267.787 431.696L267.547 433.736C266.843 434.104 266.059 434.288 265.195 434.288Z" fill="white"/>
<path d="M139.793 488V480.8H121.937V477.152L139.121 454.4H145.457V475.52H149.681V480.8H145.457V488H139.793ZM139.793 475.52V461.696L129.473 475.52H139.793ZM165.636 488.576C161.252 488.576 157.796 487.52 155.268 485.408L158.532 480.896C160.74 482.368 163.108 483.104 165.636 483.104C167.748 483.104 169.444 482.528 170.724 481.376C172.036 480.224 172.692 478.688 172.692 476.768C172.692 475.008 172.196 473.648 171.204 472.688C170.244 471.728 168.916 471.248 167.22 471.248C165.14 471.248 163.38 472.016 161.94 473.552L156.228 471.152L157.236 454.4H176.388V459.92H162.564L162.036 467.216C163.668 466.256 165.556 465.776 167.7 465.776C171.156 465.776 173.812 466.832 175.668 468.944C177.556 471.056 178.5 473.648 178.5 476.72C178.5 480.304 177.3 483.184 174.9 485.36C172.5 487.504 169.412 488.576 165.636 488.576ZM225.619 488V473.936C225.619 470.128 224.227 468.224 221.443 468.224C220.003 468.224 218.867 468.72 218.035 469.712C217.235 470.672 216.835 472.112 216.835 474.032V488H211.219V473.936C211.219 470.128 209.827 468.224 207.043 468.224C205.603 468.224 204.467 468.72 203.635 469.712C202.835 470.672 202.435 472.112 202.435 474.032V488H196.819V463.472H202.435V465.728C203.843 463.84 205.843 462.896 208.435 462.896C211.443 462.896 213.587 464.048 214.867 466.352C216.435 464.048 218.899 462.896 222.259 462.896C225.011 462.896 227.187 463.664 228.787 465.2C230.419 466.704 231.235 469.088 231.235 472.352V488H225.619ZM249.393 488.576C247.025 488.576 245.169 487.728 243.825 486.032V495.056L238.209 497.648V463.472H243.825V465.344C245.169 463.712 247.041 462.896 249.441 462.896C252.545 462.896 254.993 464.032 256.785 466.304C258.609 468.544 259.521 471.696 259.521 475.76C259.521 479.728 258.593 482.864 256.737 485.168C254.881 487.44 252.433 488.576 249.393 488.576ZM248.577 483.2C250.273 483.2 251.585 482.56 252.513 481.28C253.441 480 253.905 478.16 253.905 475.76C253.905 473.488 253.441 471.664 252.513 470.288C251.585 468.912 250.273 468.224 248.577 468.224C246.497 468.224 244.913 469.024 243.825 470.624V480.8C244.945 482.4 246.529 483.2 248.577 483.2ZM265.538 488V455.936L271.154 453.344V465.776C272.754 463.856 274.914 462.896 277.634 462.896C280.194 462.896 282.274 463.696 283.874 465.296C285.506 466.896 286.322 469.44 286.322 472.928V488H280.706V473.84C280.706 470.096 279.186 468.224 276.146 468.224C272.818 468.224 271.154 470.064 271.154 473.744V488H265.538Z" fill="#CB4444"/>
<g filter="url(#filter1_d)">
<circle cx="89.5" cy="583.5" r="33.5" fill="#CB4444"/>
</g>
<g filter="url(#filter2_d)">
<circle cx="205.5" cy="583.5" r="33.5" fill="#CB4444"/>
</g>
<g filter="url(#filter3_d)">
<circle cx="322.5" cy="583.5" r="33.5" fill="#CB4444"/>
</g>
<path d="M125.585 665.288C124.577 665.288 123.665 665.12 122.849 664.784C122.033 664.448 121.361 664 120.833 663.44C120.321 662.88 119.889 662.216 119.537 661.448C119.185 660.68 118.929 659.896 118.769 659.096C118.625 658.296 118.553 657.464 118.553 656.6C118.553 655.576 118.681 654.576 118.937 653.6C119.193 652.624 119.585 651.704 120.113 650.84C120.641 649.96 121.377 649.256 122.321 648.728C123.265 648.184 124.353 647.912 125.585 647.912C127.073 647.912 128.321 648.264 129.329 648.968C130.337 649.656 131.041 650.496 131.441 651.488L128.849 652.664C128.401 651.976 127.929 651.472 127.433 651.152C126.953 650.832 126.337 650.672 125.585 650.672C124.849 650.672 124.201 650.856 123.641 651.224C123.097 651.576 122.673 652.056 122.369 652.664C122.081 653.256 121.865 653.888 121.721 654.56C121.593 655.216 121.529 655.896 121.529 656.6C121.529 658.168 121.873 659.544 122.561 660.728C123.265 661.912 124.273 662.504 125.585 662.504C126.865 662.504 127.937 661.784 128.801 660.344L131.465 661.352C130.297 663.976 128.337 665.288 125.585 665.288ZM139.328 665.288C137.6 665.288 136.232 664.72 135.224 663.584C134.216 662.448 133.712 660.88 133.712 658.88C133.712 656.88 134.216 655.312 135.224 654.176C136.232 653.024 137.6 652.448 139.328 652.448C141.056 652.448 142.424 653.024 143.432 654.176C144.456 655.312 144.968 656.88 144.968 658.88C144.968 660.88 144.464 662.448 143.456 663.584C142.448 664.72 141.072 665.288 139.328 665.288ZM139.328 662.6C140.208 662.6 140.896 662.272 141.392 661.616C141.904 660.96 142.16 660.048 142.16 658.88C142.16 657.712 141.904 656.792 141.392 656.12C140.896 655.448 140.208 655.112 139.328 655.112C138.48 655.112 137.8 655.456 137.288 656.144C136.776 656.816 136.52 657.728 136.52 658.88C136.52 660.032 136.768 660.944 137.264 661.616C137.776 662.272 138.464 662.6 139.328 662.6ZM155.56 665V657.968C155.56 656.064 154.8 655.112 153.28 655.112C151.616 655.112 150.784 656.048 150.784 657.92V665H147.976V652.736H150.784V653.888C151.584 652.928 152.664 652.448 154.024 652.448C155.304 652.448 156.344 652.848 157.144 653.648C157.96 654.448 158.368 655.72 158.368 657.464V665H155.56ZM165.451 665.288C163.547 665.288 162.595 664.24 162.595 662.144V655.184H160.771V652.736H162.595V649.016L165.403 647.672V652.736H168.235V655.184H165.403V661.592C165.403 662.376 165.747 662.768 166.435 662.768C167.059 662.768 167.699 662.584 168.355 662.216L168.019 664.736C167.315 665.104 166.459 665.288 165.451 665.288ZM177.905 665V664.016C177.089 664.864 176.001 665.288 174.641 665.288C173.329 665.288 172.257 664.936 171.425 664.232C170.609 663.512 170.201 662.504 170.201 661.208C170.201 659.88 170.665 658.872 171.593 658.184C172.537 657.496 173.673 657.152 175.001 657.152C176.169 657.152 177.137 657.368 177.905 657.8V657.152C177.905 656.368 177.705 655.8 177.305 655.448C176.921 655.096 176.321 654.92 175.505 654.92C174.177 654.92 172.961 655.304 171.857 656.072L170.993 653.792C172.321 652.896 173.921 652.448 175.793 652.448C176.433 652.448 176.993 652.504 177.473 652.616C177.969 652.712 178.473 652.912 178.985 653.216C179.513 653.52 179.921 654 180.209 654.656C180.497 655.312 180.641 656.128 180.641 657.104V665H177.905ZM175.169 662.816C176.241 662.816 177.153 662.424 177.905 661.64V660.056C177.201 659.72 176.385 659.552 175.457 659.552C174.705 659.552 174.097 659.688 173.633 659.96C173.169 660.232 172.937 660.648 172.937 661.208C172.937 661.704 173.129 662.096 173.513 662.384C173.897 662.672 174.449 662.816 175.169 662.816ZM188.871 665.288C187.191 665.288 185.855 664.72 184.863 663.584C183.887 662.448 183.399 660.88 183.399 658.88C183.399 656.88 183.887 655.312 184.863 654.176C185.855 653.024 187.191 652.448 188.871 652.448C191.399 652.448 193.023 653.576 193.743 655.832L191.079 656.72C190.679 655.664 189.975 655.136 188.967 655.136C188.119 655.136 187.455 655.472 186.975 656.144C186.495 656.816 186.255 657.728 186.255 658.88C186.255 660.016 186.487 660.92 186.951 661.592C187.431 662.248 188.071 662.576 188.871 662.576C190.007 662.576 190.751 661.984 191.103 660.8L193.791 661.616C193.087 664.064 191.447 665.288 188.871 665.288ZM200.209 665.288C198.305 665.288 197.353 664.24 197.353 662.144V655.184H195.529V652.736H197.353V649.016L200.161 647.672V652.736H202.993V655.184H200.161V661.592C200.161 662.376 200.505 662.768 201.193 662.768C201.817 662.768 202.457 662.584 203.113 662.216L202.777 664.736C202.073 665.104 201.217 665.288 200.209 665.288ZM219.333 665V657.968C219.333 656.064 218.573 655.112 217.053 655.112C215.389 655.112 214.557 656.048 214.557 657.92V665H211.749V652.736H214.557V653.888C215.357 652.928 216.437 652.448 217.797 652.448C219.077 652.448 220.117 652.848 220.917 653.648C221.733 654.448 222.141 655.72 222.141 657.464V665H219.333ZM230.64 665.288C228.912 665.288 227.544 664.72 226.536 663.584C225.528 662.448 225.024 660.88 225.024 658.88C225.024 656.88 225.528 655.312 226.536 654.176C227.544 653.024 228.912 652.448 230.64 652.448C232.368 652.448 233.736 653.024 234.744 654.176C235.768 655.312 236.28 656.88 236.28 658.88C236.28 660.88 235.776 662.448 234.768 663.584C233.76 664.72 232.384 665.288 230.64 665.288ZM230.64 662.6C231.52 662.6 232.208 662.272 232.704 661.616C233.216 660.96 233.472 660.048 233.472 658.88C233.472 657.712 233.216 656.792 232.704 656.12C232.208 655.448 231.52 655.112 230.64 655.112C229.792 655.112 229.112 655.456 228.6 656.144C228.088 656.816 227.832 657.728 227.832 658.88C227.832 660.032 228.08 660.944 228.576 661.616C229.088 662.272 229.776 662.6 230.64 662.6ZM242.818 665.288C240.914 665.288 239.962 664.24 239.962 662.144V655.184H238.138V652.736H239.962V649.016L242.77 647.672V652.736H245.602V655.184H242.77V661.592C242.77 662.376 243.114 662.768 243.802 662.768C244.426 662.768 245.066 662.584 245.722 662.216L245.386 664.736C244.682 665.104 243.826 665.288 242.818 665.288ZM251.092 650.576C250.772 650.896 250.38 651.056 249.916 651.056C249.452 651.056 249.052 650.896 248.716 650.576C248.396 650.24 248.236 649.84 248.236 649.376C248.236 648.912 248.396 648.52 248.716 648.2C249.052 647.88 249.452 647.72 249.916 647.72C250.38 647.72 250.772 647.88 251.092 648.2C251.412 648.52 251.572 648.912 251.572 649.376C251.572 649.84 251.412 650.24 251.092 650.576ZM248.5 665V652.736H251.308V665H248.5ZM265.889 650.576C265.569 650.896 265.177 651.056 264.713 651.056C264.249 651.056 263.849 650.896 263.513 650.576C263.193 650.24 263.033 649.84 263.033 649.376C263.033 648.912 263.193 648.52 263.513 648.2C263.849 647.88 264.249 647.72 264.713 647.72C265.177 647.72 265.569 647.88 265.889 648.2C266.209 648.52 266.369 648.912 266.369 649.376C266.369 649.84 266.209 650.24 265.889 650.576ZM258.545 655.184V665H255.737V655.184H253.961V652.736H255.737V650.816C255.737 648.88 256.705 647.912 258.641 647.912C259.617 647.912 260.481 648.104 261.233 648.488V650.792C260.577 650.52 259.993 650.384 259.481 650.384C258.857 650.384 258.545 650.704 258.545 651.344V652.736H261.233V655.184H258.545ZM263.297 665V652.736H266.105V665H263.297ZM274.798 665.288C273.054 665.288 271.67 664.72 270.646 663.584C269.638 662.432 269.134 660.856 269.134 658.856C269.134 656.872 269.646 655.312 270.67 654.176C271.694 653.024 273.07 652.448 274.798 652.448C276.366 652.448 277.646 652.936 278.638 653.912C279.646 654.888 280.15 656.32 280.15 658.208C280.15 658.864 280.118 659.44 280.054 659.936H271.918C271.966 660.8 272.262 661.496 272.806 662.024C273.366 662.552 274.03 662.816 274.798 662.816C275.886 662.816 276.75 662.392 277.39 661.544L279.166 663.368C278.094 664.648 276.638 665.288 274.798 665.288ZM271.942 657.608H277.366C277.302 656.728 277.03 656.064 276.55 655.616C276.07 655.152 275.486 654.92 274.798 654.92C273.998 654.92 273.334 655.144 272.806 655.592C272.294 656.024 272.006 656.696 271.942 657.608ZM287.511 665.288C285.943 665.288 284.703 664.72 283.791 663.584C282.879 662.448 282.423 660.872 282.423 658.856C282.423 656.888 282.895 655.328 283.839 654.176C284.783 653.024 286.007 652.448 287.511 652.448C288.695 652.448 289.615 652.832 290.271 653.6V648.944L293.079 647.672V665H290.271V664.112C289.663 664.896 288.743 665.288 287.511 665.288ZM287.943 662.6C288.983 662.6 289.759 662.208 290.271 661.424V656.288C289.743 655.504 288.967 655.112 287.943 655.112C287.079 655.112 286.407 655.44 285.927 656.096C285.463 656.736 285.231 657.656 285.231 658.856C285.231 659.992 285.471 660.904 285.951 661.592C286.431 662.264 287.095 662.6 287.943 662.6Z" fill="white"/>
<defs>
<filter id="filter0_d" x="18" y="19" width="376" height="370" filterUnits="userSpaceOnUse" color-interpolation-filters="sRGB">
<feFlood flood-opacity="0" result="BackgroundImageFix"/>
<feColorMatrix in="SourceAlpha" type="matrix" values="0 0 0 0 0 0 0 0 0 0 0 0 0 0 0 0 0 0 127 0"/>
<feOffset/>
<feGaussianBlur stdDeviation="25"/>
<feColorMatrix type="matrix" values="0 0 0 0 0.796078 0 0 0 0 0.266667 0 0 0 0 0.266667 0 0 0 0.5 0"/>
<feBlend mode="normal" in2="BackgroundImageFix" result="effect1_dropShadow"/>
<feBlend mode="normal" in="SourceGraphic" in2="effect1_dropShadow" result="shape"/>
</filter>
<filter id="filter1_d" x="6" y="500" width="167" height="167" filterUnits="userSpaceOnUse" color-interpolation-filters="sRGB">
<feFlood flood-opacity="0" result="BackgroundImageFix"/>
<feColorMatrix in="SourceAlpha" type="matrix" values="0 0 0 0 0 0 0 0 0 0 0 0 0 0 0 0 0 0 127 0"/>
<feOffset/>
<feGaussianBlur stdDeviation="25"/>
<feColorMatrix type="matrix" values="0 0 0 0 0.796078 0 0 0 0 0.266667 0 0 0 0 0.266667 0 0 0 0.75 0"/>
<feBlend mode="normal" in2="BackgroundImageFix" result="effect1_dropShadow"/>
<feBlend mode="normal" in="SourceGraphic" in2="effect1_dropShadow" result="shape"/>
</filter>
<filter id="filter2_d" x="122" y="500" width="167" height="167" filterUnits="userSpaceOnUse" color-interpolation-filters="sRGB">
<feFlood flood-opacity="0" result="BackgroundImageFix"/>
<feColorMatrix in="SourceAlpha" type="matrix" values="0 0 0 0 0 0 0 0 0 0 0 0 0 0 0 0 0 0 127 0"/>
<feOffset/>
<feGaussianBlur stdDeviation="25"/>
<feColorMatrix type="matrix" values="0 0 0 0 0.796078 0 0 0 0 0.266667 0 0 0 0 0.266667 0 0 0 0.75 0"/>
<feBlend mode="normal" in2="BackgroundImageFix" result="effect1_dropShadow"/>
<feBlend mode="normal" in="SourceGraphic" in2="effect1_dropShadow" result="shape"/>
</filter>
<filter id="filter3_d" x="239" y="500" width="167" height="167" filterUnits="userSpaceOnUse" color-interpolation-filters="sRGB">
<feFlood flood-opacity="0" result="BackgroundImageFix"/>
<feColorMatrix in="SourceAlpha" type="matrix" values="0 0 0 0 0 0 0 0 0 0 0 0 0 0 0 0 0 0 127 0"/>
<feOffset/>
<feGaussianBlur stdDeviation="25"/>
<feColorMatrix type="matrix" values="0 0 0 0 0.796078 0 0 0 0 0.266667 0 0 0 0 0.266667 0 0 0 0.5 0"/>
<feBlend mode="normal" in2="BackgroundImageFix" result="effect1_dropShadow"/>
<feBlend mode="normal" in="SourceGraphic" in2="effect1_dropShadow" result="shape"/>
</filter>
</defs>
</svg>
